<?xml version="1.0" encoding="UTF-8"?>
<svg xmlns="http://www.w3.org/2000/svg" xmlns:xlink="http://www.w3.org/1999/xlink" viewBox="0 0 30 30" width="30px" height="30px">
<g id="surface174371936">
<path style="fill-rule:nonzero;fill:rgb(61.56863%,18.039216%,71.764708%);fill-opacity:1;stroke-width:10;stroke-linecap:butt;stroke-linejoin:round;stroke:rgb(61.56863%,18.039216%,71.764708%);stroke-opacity:1;stroke-miterlimit:10;" d="M 230.4 128 C 230.4 172.666667 201.733333 210.566667 161.833333 224.566667 C 161.933333 223.8 162.133333 223.166667 162.133333 222.266667 L 162.133333 198.933333 C 162.133333 188.6 155.3 174.833333 145.933333 169.966667 C 179.966667 166.433333 196.233333 149.466667 196.233333 126.466667 C 196.233333 116.566667 192.033333 107 184.9 98.933333 C 187.266667 90.933333 190.266667 74.5 184.033333 68.266667 C 168.633333 68.266667 159.366667 78.266667 157.166667 80.933333 C 149.5 78.3 141.066667 76.8 132.233333 76.8 C 123.4 76.8 115 78.3 107.366667 80.9 C 105.133333 78.2 95.866667 68.266667 80.5 68.266667 C 74.3 74.5 77.266667 90.866667 79.6 98.866667 C 72.433333 106.966667 68.2 116.533333 68.2 126.466667 C 68.2 149.5 84.466667 166.466667 118.566667 169.966667 C 112.666667 173.066667 107.833333 179.6 105.033333 186.7 C 99.833333 187.533333 94.3 187.733333 90.6 187.733333 C 82.966667 187.733333 81.066667 186.533333 76.966667 181.166667 C 72.866667 175.833333 68.533333 172.233333 63.266667 170.766667 C 60.433333 170.466667 58.566667 172.666667 61.033333 174.6 C 69.333333 180.433333 69.933333 189.933333 73.266667 196.166667 C 76.3 201.766667 82.533333 204.766667 89.533333 204.766667 C 91.266667 204.766667 98.233333 204.766667 102.4 204.766667 L 102.4 222.266667 C 102.4 224.266667 102.7 225.866667 103.2 227.233333 C 58.633333 216.133333 25.6 175.966667 25.6 128 C 25.6 71.433333 71.433333 25.6 128 25.6 C 184.566667 25.6 230.4 71.433333 230.4 128 Z M 230.4 128 " transform="matrix(0.117188,0,0,0.117188,0,0)"/>
<path style=" stroke:none;fill-rule:nonzero;fill:rgb(0%,0%,0%);fill-opacity:1;" d="M 15 3 C 8.371094 3 3 8.371094 3 15 C 3 20.621094 6.871094 25.328125 12.09375 26.628906 C 12.035156 26.46875 12 26.28125 12 26.046875 L 12 23.996094 C 11.511719 23.996094 10.695312 23.996094 10.492188 23.996094 C 9.671875 23.996094 8.941406 23.644531 8.585938 22.988281 C 8.195312 22.257812 8.125 21.144531 7.152344 20.460938 C 6.863281 20.234375 7.082031 19.976562 7.414062 20.011719 C 8.03125 20.183594 8.539062 20.605469 9.019531 21.230469 C 9.5 21.859375 9.722656 22 10.617188 22 C 11.050781 22 11.699219 21.976562 12.308594 21.878906 C 12.636719 21.046875 13.203125 20.28125 13.894531 19.917969 C 9.898438 19.507812 7.992188 17.519531 7.992188 14.820312 C 7.992188 13.65625 8.488281 12.535156 9.328125 11.585938 C 9.054688 10.648438 8.707031 8.730469 9.433594 8 C 11.234375 8 12.320312 9.164062 12.582031 9.480469 C 13.476562 9.175781 14.460938 9 15.496094 9 C 16.53125 9 17.519531 9.175781 18.417969 9.484375 C 18.675781 9.171875 19.761719 8 21.566406 8 C 22.296875 8.730469 21.945312 10.65625 21.667969 11.59375 C 22.503906 12.539062 22.996094 13.660156 22.996094 14.820312 C 22.996094 17.515625 21.089844 19.503906 17.101562 19.917969 C 18.199219 20.488281 19 22.101562 19 23.3125 L 19 26.046875 C 19 26.152344 18.976562 26.226562 18.964844 26.316406 C 23.640625 24.675781 27 20.234375 27 15 C 27 8.371094 21.628906 3 15 3 Z M 15 3 "/>
</g>
</svg>
